<svg width="28" height="28" viewBox="0 0 28 28" fill="none" xmlns="http://www.w3.org/2000/svg">
<path d="M7.04366 21.2187C6.82491 21.1749 6.64991 21.1312 6.43116 21.0437C6.21241 20.9562 6.03741 20.9124 5.86241 20.8249C5.46866 20.6499 5.11866 20.4312 4.76866 20.1687C4.06866 19.6874 3.49991 19.0312 3.06241 18.2437C2.62491 17.4999 2.36241 16.6249 2.31866 15.7937C2.27491 15.3562 2.31866 14.9624 2.36241 14.5249C2.40616 14.3062 2.44991 14.1312 2.49366 13.9124C2.53741 13.6937 2.62491 13.5187 2.66866 13.2999L2.71241 13.9124C2.71241 14.1312 2.75616 14.3062 2.79991 14.5249C2.84366 14.9187 2.93116 15.3124 3.01866 15.6624C3.19366 16.4062 3.45616 17.1062 3.84991 17.7624C4.24366 18.4187 4.68116 19.0312 5.24991 19.5999C5.51241 19.8624 5.81866 20.1249 6.12491 20.3874C6.25616 20.5187 6.43116 20.6499 6.60616 20.7812L7.04366 21.2187Z" fill="#C6C6C6"/>
<path d="M6.9125 22.7937C6.78125 22.8812 6.60625 22.9249 6.43125 22.9687C6.25625 23.0124 6.125 23.0562 5.95 23.0562C5.64375 23.0999 5.29375 23.1437 4.94375 23.0999C4.2875 23.0562 3.5875 22.8812 3.01875 22.5749C2.40625 22.2687 1.88125 21.7874 1.53125 21.2187C1.35625 20.9562 1.18125 20.6499 1.05 20.3437C1.00625 20.2124 0.9625 20.0374 0.91875 19.8624C0.91875 19.7312 0.875 19.5999 0.875 19.4249C1.00625 19.5562 1.09375 19.6437 1.18125 19.7749C1.3125 19.9062 1.4 20.0374 1.4875 20.1249C1.70625 20.3437 1.88125 20.5624 2.1 20.7374C2.5375 21.1312 2.975 21.4812 3.5 21.7437C3.98125 22.0062 4.55 22.2249 5.075 22.3999C5.3375 22.4874 5.64375 22.5312 5.95 22.6187C6.08125 22.6624 6.25625 22.6624 6.3875 22.7062C6.60625 22.7499 6.7375 22.7499 6.9125 22.7937Z" fill="#C6C6C6"/>
<path d="M16.8 1.53125C17.0188 1.575 17.1938 1.6625 17.4125 1.75C17.6313 1.8375 17.8063 1.925 17.9813 2.0125C18.375 2.23125 18.725 2.45 19.075 2.7125C19.775 3.2375 20.3438 3.9375 20.7375 4.725C21.1313 5.5125 21.35 6.3875 21.35 7.21875C21.35 7.65625 21.3063 8.05 21.2188 8.4875C21.175 8.70625 21.1313 8.88125 21.0438 9.1C20.9563 9.31875 20.9125 9.49375 20.825 9.66875L20.7813 9.05625C20.7813 8.8375 20.7813 8.6625 20.7375 8.44375L20.6063 7.2625C20.475 6.51875 20.2125 5.775 19.8625 5.075C19.5125 4.375 19.075 3.7625 18.55 3.19375C18.2875 2.8875 17.9813 2.625 17.7188 2.31875C17.5875 2.1875 17.4125 2.05625 17.2375 1.925L16.8 1.53125Z" fill="#C6C6C6"/>
<path d="M20.6062 1.3562C20.7812 1.39995 20.9125 1.4437 21.0437 1.5312C21.175 1.57495 21.35 1.66245 21.4812 1.74995C21.7437 1.92495 22.0062 2.09995 22.2687 2.3187C22.75 2.7562 23.1437 3.2812 23.3625 3.8937C23.625 4.5062 23.7125 5.16245 23.625 5.8187C23.5812 6.12495 23.4937 6.4312 23.4062 6.73745C23.3625 6.8687 23.275 7.0437 23.2312 7.17495C23.1437 7.3062 23.1 7.43745 22.9687 7.5687V6.6937C22.9687 6.38745 22.925 6.12495 22.925 5.86245C22.8375 5.2937 22.75 4.7687 22.5312 4.28745C22.3125 3.76245 22.05 3.32495 21.7437 2.8437C21.5687 2.62495 21.3937 2.36245 21.2187 2.1437C21.1312 2.01245 21.0437 1.92495 20.9125 1.7937C20.825 1.57495 20.6937 1.4437 20.6062 1.3562Z" fill="#C6C6C6"/>
<path d="M4.37511 7.87499C3.50011 8.26874 3.19386 9.31874 3.58761 10.1937L9.10011 21.7L12.1626 20.2562L6.65011 8.70624C6.25636 7.83124 5.25011 7.43749 4.37511 7.87499Z" fill="#FED0AC"/>
<path d="M18.8564 17.0187L22.0939 15.4875L15.7939 2.36249C15.3564 1.48749 14.3064 1.09374 13.3876 1.53124C12.5126 1.96874 12.1189 3.01874 12.5564 3.93749L18.8564 17.0187Z" fill="#FED0AC"/>
<path d="M13.4312 1.48744C13.3437 1.53119 13.2562 1.57494 13.1687 1.66244C14 1.44369 14.875 1.83744 15.2687 2.62494L21.5687 15.7499L22.1375 15.4874L15.8375 2.36244C15.4 1.44369 14.35 1.04994 13.4312 1.48744Z" fill="#E0A372"/>
<path d="M12.1625 20.2125L15.5312 18.5938L9.09997 5.20625C8.66247 4.2875 7.52497 3.85 6.60622 4.2875C5.68747 4.725 5.29372 5.8625 5.73122 6.78125L12.1625 20.2125Z" fill="#FED0AC"/>
<path d="M6.60625 4.33125C6.51875 4.375 6.43125 4.41875 6.34375 4.50625C7.175 4.2875 8.1375 4.68125 8.53125 5.5125L12.5125 13.8688L13.475 14.4375L9.1 5.25C8.6625 4.2875 7.56875 3.89375 6.60625 4.33125Z" fill="#E0A372"/>
<path d="M15.0062 17.5437L18.375 15.925L11.9437 2.53749C11.5062 1.61874 10.3687 1.18124 9.44997 1.66249C8.53122 2.09999 8.13747 3.23749 8.57497 4.15624L15.0062 17.5437Z" fill="#FED0AC"/>
<path d="M9.45 1.61872C9.3625 1.66247 9.275 1.74997 9.1875 1.79372C10.0187 1.57497 10.9813 1.96872 11.375 2.79997L15.8812 12.25L16.8438 12.8187L11.9437 2.53747C11.5062 1.57497 10.3688 1.18122 9.45 1.61872Z" fill="#E0A372"/>
<path d="M4.37505 7.87502C4.28755 7.91877 4.20005 7.96252 4.11255 8.05002C4.90005 7.83127 5.7313 8.22502 6.0813 9.01252L9.36255 15.8813L10.325 16.45L6.65005 8.75002C6.2563 7.83127 5.25005 7.43752 4.37505 7.87502Z" fill="#E0A372"/>
<path d="M26.6 6.56253C25.4187 5.64378 23.4937 6.65003 22.5312 9.80003C21.875 11.9875 21.7875 12.6438 20.3875 13.3L19.6 11.6813C19.6 11.6813 7.17496 17.675 7.65621 18.6375C7.65621 18.6375 9.14371 23.275 11.6812 25.4188C15.4437 28.6563 24.2375 25.2 24.6312 16.8438C24.85 11.9875 27.8687 7.56878 26.6 6.56253Z" fill="#FED0AC"/>
<path d="M26.6 6.56248C26.3813 6.38748 26.1188 6.29998 25.8563 6.25623C25.9 6.29998 25.9875 6.29998 26.0313 6.34373C27.3438 7.34998 25.9875 9.66873 25.2438 11.7687C24.6313 13.4312 24.1063 15.1375 24.1938 16.8C24.5438 24.0625 17.2375 27.5187 12.8625 26.2062C17.15 28 25.1125 24.5875 24.7625 17.0187C24.675 15.3562 25.1563 13.7375 25.8125 11.9875C26.5125 9.88748 27.8688 7.56873 26.6 6.56248Z" fill="#E0A372"/>
<path d="M20.7814 13.125C18.0689 13.4313 14.0876 17.325 16.8876 21.5688C14.8314 17.2812 18.2001 14.3938 20.3439 13.3875C20.5626 13.2125 20.7814 13.125 20.7814 13.125Z" fill="#E0A372"/>
</svg>
