<svg width="51" height="50" viewBox="0 0 51 50" fill="none" xmlns="http://www.w3.org/2000/svg">
<g filter="url(#filter0_d_26_1825)">
<path fill-rule="evenodd" clip-rule="evenodd" d="M21.8028 0.191767C12.9016 2.08219 6.40155 8.54061 4.77541 17.1095C4.45126 18.8166 4.40259 22.8195 4.68635 24.4115C6.10409 32.3635 11.8581 38.885 19.4649 41.1611C23.4171 42.3434 28.3189 42.2713 32.169 40.9744C38.6266 38.7988 43.8006 33.423 45.6815 26.9348C46.3271 24.7079 46.4986 23.452 46.5 20.9368C46.5063 10.9769 39.7962 2.654 29.9629 0.424242C28.3408 0.0562497 27.5791 -0.0129532 25.3183 0.00182417C23.831 0.0115556 22.249 0.096976 21.8028 0.191767ZM34.8643 13.56C33.1797 14.3241 32.6437 16.6054 33.8202 18.0032C35.1212 19.5487 37.2195 19.4403 38.4623 17.7637C38.7441 17.3836 38.8395 16.988 38.8395 16.2C38.8395 15.069 38.5436 14.4838 37.6249 13.7981C37.0282 13.3528 35.594 13.2292 34.8643 13.56ZM15.0423 17.1753C13.5472 17.8395 12.8537 19.8453 13.6662 21.1558C13.8504 21.4531 15.9442 23.6551 18.3191 26.0492C22.9604 30.7283 23.3241 30.9914 24.7708 30.7201C25.6921 30.5473 26.7615 29.534 26.9957 28.6118C27.0992 28.2046 27.1561 27.7794 27.1224 27.6672C27.0887 27.5551 27.0081 27.2199 26.9434 26.9225C26.7983 26.2558 18.2365 17.5566 17.3466 17.1717C16.6252 16.8597 15.7493 16.861 15.0423 17.1753ZM29.0952 19.3369C27.2764 20.1288 26.8468 22.5458 28.2717 23.9703C30.2972 25.995 33.6163 24.1815 33.0834 21.3412C32.9464 20.6115 32.252 19.7227 31.5256 19.3472C30.8973 19.0224 29.8279 19.0179 29.0952 19.3369Z" fill="#15B86C"/>
</g>
<defs>
<filter id="filter0_d_26_1825" x="0.5" y="0" width="50" height="50" filterUnits="userSpaceOnUse" color-interpolation-filters="sRGB">
<feFlood flood-opacity="0" result="BackgroundImageFix"/>
<feColorMatrix in="SourceAlpha" type="matrix" values="0 0 0 0 0 0 0 0 0 0 0 0 0 0 0 0 0 0 127 0" result="hardAlpha"/>
<feOffset dy="4"/>
<feGaussianBlur stdDeviation="2"/>
<feComposite in2="hardAlpha" operator="out"/>
<feColorMatrix type="matrix" values="0 0 0 0 0 0 0 0 0 0 0 0 0 0 0 0 0 0 0.25 0"/>
<feBlend mode="normal" in2="BackgroundImageFix" result="effect1_dropShadow_26_1825"/>
<feBlend mode="normal" in="SourceGraphic" in2="effect1_dropShadow_26_1825" result="shape"/>
</filter>
</defs>
</svg>
